<svg viewBox="0 0 512 512" xmlns="http://www.w3.org/2000/svg">
<path d="M0.11 489.651C0.18 490.381 0.29 491.101 0.42 491.801V491.951C0.56 492.661 0.73 493.351 0.93 494.041C0.940626 494.1 0.957386 494.157 0.98 494.211C1.18 494.891 1.41 495.551 1.67 496.211L1.76 496.441C2.03 497.071 2.32 497.701 2.63 498.311L2.77 498.581C3.10333 499.188 3.43667 499.778 3.77 500.351L3.93 500.611C4.34 501.211 4.76 501.791 5.22 502.351L5.34 502.511C5.85 503.131 6.34 503.721 6.94 504.281C7.5 504.841 8.09 505.371 8.71 505.881L8.87 506.011C9.43 506.461 10.01 506.891 10.61 507.291L10.87 507.451C11.4433 507.825 12.0333 508.158 12.64 508.451L12.92 508.591C13.52 508.901 14.15 509.191 14.78 509.461L15.02 509.551C15.67 509.811 16.33 510.041 17.02 510.241L17.19 510.291C17.88 510.491 18.57 510.661 19.28 510.801H19.42C20.13 510.931 20.85 511.041 21.58 511.111H21.7C22.43 511.181 23.17 511.211 23.92 511.211H295.13C301.495 511.211 307.6 508.683 312.101 504.182C316.601 499.681 319.13 493.576 319.13 487.211C319.13 480.846 316.601 474.742 312.101 470.241C307.6 465.74 301.495 463.211 295.13 463.211H81.94L504.26 40.9813C508.762 36.4792 511.291 30.3731 511.291 24.0063C511.291 17.6394 508.762 11.5333 504.26 7.03128C499.758 2.52923 493.652 1.4231e-07 487.285 0C480.918 -1.4231e-07 474.812 2.52923 470.31 7.03127L48 429.351V216.161C48 209.796 45.4714 203.692 40.9706 199.191C36.4697 194.69 30.3652 192.161 24 192.161C17.6348 192.161 11.5303 194.69 7.02944 199.191C2.52856 203.692 9.48488e-08 209.796 0 216.161V487.291C0 488.031 -7.45058e-09 488.771 0.1 489.501C0.111029 489.55 0.114402 489.601 0.11 489.651Z"/>
</svg>
