<svg viewBox="0 0 512 512" xmlns="http://www.w3.org/2000/svg">
<path d="M24.039 511.26C27.1936 511.268 30.3188 510.653 33.2359 509.452C36.1529 508.251 38.8045 506.487 41.039 504.26L463.319 81.92V295.11C463.319 301.475 465.848 307.58 470.348 312.081C474.849 316.581 480.954 319.11 487.319 319.11C493.684 319.11 499.789 316.581 504.29 312.081C508.79 307.58 511.319 301.475 511.319 295.11V23.98C511.319 23.24 511.319 22.5 511.219 21.77C511.214 21.7302 511.214 21.6899 511.219 21.65C511.149 20.92 511.039 20.2 510.909 19.5V19.35C510.769 18.64 510.599 17.95 510.399 17.26C510.388 17.2017 510.372 17.1447 510.349 17.09C510.149 16.41 509.919 15.75 509.659 15.09C509.63 15.0083 509.597 14.9282 509.559 14.85C509.299 14.22 509.009 13.59 508.699 12.98L508.559 12.71C508.232 12.1033 507.899 11.5133 507.559 10.94L507.399 10.68C506.989 10.08 506.569 9.5 506.109 8.94L505.989 8.78C505.479 8.16 504.989 7.57 504.389 7.01C503.829 6.45 503.239 5.92 502.619 5.41L502.459 5.28C501.899 4.83 501.319 4.41 500.719 4.01L500.459 3.84C499.892 3.46667 499.302 3.13333 498.689 2.84L498.309 2.62C497.699 2.31 497.079 2.02 496.449 1.76L496.209 1.66C495.542 1.4 494.876 1.17 494.209 0.97L494.019 0.92C493.339 0.72 492.649 0.55 491.939 0.41H491.779C491.079 0.28 490.369 0.17 489.649 0.1H489.499C488.789 0.03 488.059 0 487.329 0H216.189C209.824 9.48488e-08 203.719 2.52856 199.218 7.02944C194.718 11.5303 192.189 17.6348 192.189 24C192.189 30.3652 194.718 36.4697 199.218 40.9706C203.719 45.4714 209.824 48 216.189 48H429.379L7.05901 470.29C3.69063 473.647 1.39534 477.928 0.464404 482.592C-0.466537 487.255 0.00883567 492.09 1.8302 496.482C3.65156 500.875 6.73681 504.628 10.6944 507.264C14.6521 509.9 19.3037 511.302 24.059 511.29L24.039 511.26Z"/>
</svg>
