<svg viewBox="0 0 454 147" fill="none" xmlns="http://www.w3.org/2000/svg">
<rect y="0.510864" width="454" height="146" rx="12.2044" fill="#0F172A"/>
<path d="M60.5765 30.5513H16.1027C16.1027 30.5513 15.6914 43.5515 1 47.9977C1 47.9977 1.6682 75.4577 10.0417 91.1128C19.6696 109.114 38.3401 117.449 38.3401 117.449C38.3401 117.449 57.0095 109.114 66.6401 91.1128C75.0136 75.4583 75.6818 47.9977 75.6818 47.9977C60.9885 43.552 60.5778 30.5513 60.5778 30.5513H60.5765Z" fill="#F8FAFC"/>
<path d="M37.728 82.2924C36.072 82.2924 34.584 82.0044 33.264 81.4284C31.968 80.8284 30.948 80.0124 30.204 78.9804C29.46 77.9244 29.076 76.7124 29.052 75.3444H32.544C32.664 76.5204 33.144 77.5164 33.984 78.3324C34.848 79.1244 36.096 79.5204 37.728 79.5204C39.288 79.5204 40.512 79.1364 41.4 78.3684C42.312 77.5764 42.768 76.5684 42.768 75.3444C42.768 74.3844 42.504 73.6044 41.976 73.0044C41.448 72.4044 40.788 71.9484 39.996 71.6364C39.204 71.3244 38.136 70.9884 36.792 70.6284C35.136 70.1964 33.804 69.7644 32.796 69.3324C31.812 68.9004 30.96 68.2284 30.24 67.3164C29.544 66.3804 29.196 65.1324 29.196 63.5724C29.196 62.2044 29.544 60.9924 30.24 59.9364C30.936 58.8804 31.908 58.0644 33.156 57.4884C34.428 56.9124 35.88 56.6244 37.512 56.6244C39.864 56.6244 41.784 57.2124 43.272 58.3884C44.784 59.5644 45.636 61.1244 45.828 63.0684H42.228C42.108 62.1084 41.604 61.2684 40.716 60.5484C39.828 59.8044 38.652 59.4324 37.188 59.4324C35.82 59.4324 34.704 59.7924 33.84 60.5124C32.976 61.2084 32.544 62.1924 32.544 63.4644C32.544 64.3764 32.796 65.1204 33.3 65.6964C33.828 66.2724 34.464 66.7164 35.208 67.0284C35.976 67.3164 37.044 67.6524 38.412 68.0364C40.068 68.4924 41.4 68.9484 42.408 69.4044C43.416 69.8364 44.28 70.5204 45 71.4564C45.72 72.3684 46.08 73.6164 46.08 75.2004C46.08 76.4244 45.756 77.5764 45.108 78.6564C44.46 79.7364 43.5 80.6124 42.228 81.2844C40.956 81.9564 39.456 82.2924 37.728 82.2924Z" fill="#0F172A"/>
<path d="M120.095 108.683C115.604 108.683 111.568 107.902 107.988 106.34C104.474 104.713 101.707 102.5 99.6895 99.701C97.6717 96.8371 96.6303 93.55 96.5652 89.8399H106.036C106.361 93.0293 107.663 95.7305 109.941 97.9436C112.284 100.092 115.669 101.166 120.095 101.166C124.326 101.166 127.646 100.124 130.054 98.0412C132.527 95.8933 133.764 93.1595 133.764 89.8399C133.764 87.2363 133.048 85.1209 131.616 83.4936C130.184 81.8664 128.394 80.6297 126.246 79.7835C124.098 78.9373 121.202 78.0261 117.557 77.0497C113.065 75.8781 109.453 74.7065 106.719 73.5349C104.051 72.3633 101.74 70.5407 99.7871 68.0673C97.8995 65.5288 96.9557 62.1441 96.9557 57.9133C96.9557 54.2032 97.8995 50.9161 99.7871 48.0522C101.675 45.1882 104.311 42.9751 107.696 41.413C111.145 39.8508 115.083 39.0698 119.509 39.0698C125.888 39.0698 131.095 40.6645 135.131 43.8539C139.232 47.0433 141.542 51.2741 142.063 56.5464H132.3C131.974 53.9428 130.607 51.6647 128.199 49.712C125.791 47.6942 122.601 46.6853 118.631 46.6853C114.921 46.6853 111.894 47.6616 109.551 49.6143C107.207 51.5019 106.036 54.1706 106.036 57.6204C106.036 60.0938 106.719 62.1116 108.086 63.6738C109.518 65.2359 111.243 66.4401 113.261 67.2862C115.344 68.0673 118.24 68.9786 121.95 70.02C126.441 71.2567 130.054 72.4934 132.788 73.7301C135.522 74.9018 137.865 76.7568 139.817 79.2953C141.77 81.7688 142.747 85.1534 142.747 89.4494C142.747 92.769 141.868 95.8933 140.11 98.8223C138.353 101.751 135.749 104.127 132.3 105.95C128.85 107.772 124.782 108.683 120.095 108.683ZM152.502 73.9254C152.502 67.2862 153.999 61.3305 156.993 56.0582C159.987 50.7209 164.055 46.5551 169.197 43.561C174.404 40.5668 180.165 39.0698 186.479 39.0698C193.899 39.0698 200.375 40.8597 205.908 44.4397C211.441 48.0196 215.476 53.0966 218.015 59.6707H207.372C205.485 55.5701 202.751 52.4132 199.171 50.2001C195.656 47.9871 191.425 46.8805 186.479 46.8805C181.727 46.8805 177.464 47.9871 173.688 50.2001C169.913 52.4132 166.952 55.5701 164.804 59.6707C162.656 63.7063 161.582 68.4579 161.582 73.9254C161.582 79.3279 162.656 84.0794 164.804 88.1801C166.952 92.2157 169.913 95.34 173.688 97.5531C177.464 99.7661 181.727 100.873 186.479 100.873C191.425 100.873 195.656 99.7987 199.171 97.6507C202.751 95.4376 205.485 92.2808 207.372 88.1801H218.015C215.476 94.6891 211.441 99.7336 205.908 103.314C200.375 106.828 193.899 108.586 186.479 108.586C180.165 108.586 174.404 107.121 169.197 104.192C164.055 101.198 159.987 97.0649 156.993 91.7926C153.999 86.5203 152.502 80.5646 152.502 73.9254ZM267.072 108L250.865 80.1741H240.125V108H231.24V39.9485H253.208C258.35 39.9485 262.679 40.8272 266.194 42.5846C269.774 44.342 272.442 46.7178 274.2 49.712C275.957 52.7061 276.836 56.1233 276.836 59.9636C276.836 64.6501 275.469 68.7833 272.735 72.3633C270.066 75.9432 266.031 78.319 260.628 79.4906L277.715 108H267.072ZM240.125 73.0467H253.208C258.025 73.0467 261.637 71.8751 264.046 69.5318C266.454 67.1235 267.658 63.9341 267.658 59.9636C267.658 55.9281 266.454 52.8037 264.046 50.5907C261.702 48.3776 258.09 47.2711 253.208 47.2711H240.125V73.0467ZM299.526 47.1735V69.9224H324.325V77.245H299.526V100.677H327.254V108H290.641V39.8508H327.254V47.1735H299.526ZM349.583 47.1735V69.9224H374.382V77.245H349.583V100.677H377.311V108H340.698V39.8508H377.311V47.1735H349.583ZM444.259 108H435.374L399.64 53.8126V108H390.755V39.8508H399.64L435.374 93.9406V39.8508H444.259V108Z" fill="#F8FAFC"/>
</svg>
